<svg width="44" height="44" viewBox="0 0 44 44" fill="none" xmlns="http://www.w3.org/2000/svg">
<path d="M41.1831 24.423C40.7831 23.623 40.2831 22.823 39.8831 21.923C40.9831 20.023 41.8831 18.123 42.6831 16.123C44.7831 10.223 44.3831 5.423 41.4831 2.523C38.5831 -0.377 33.6831 -0.777 27.7831 1.323C25.7831 2.023 23.7831 3.023 21.9831 4.123C14.0831 -0.577001 6.58309 -1.477 2.58309 2.623C-1.41691 6.723 -0.616904 14.023 4.0831 21.923C3.6831 22.623 3.28309 23.223 2.98309 23.923C-0.716907 31.123 -1.11691 37.623 2.58309 41.323C4.48309 43.123 6.98309 44.023 9.48309 43.923C13.0831 43.823 16.5831 42.823 19.7831 41.023C21.4831 40.123 23.0831 39.223 24.5831 38.123C27.2831 36.223 29.6831 34.223 31.9831 31.923C33.1831 30.723 34.3831 29.423 35.4831 28.123C35.9831 27.623 36.3831 27.023 36.7831 26.423C37.1831 27.223 37.5831 28.123 37.8831 29.023C37.8831 29.123 37.9831 29.223 37.9831 29.423C38.5831 31.023 38.9831 32.723 38.9831 34.423C39.0831 35.623 38.6831 36.923 37.8831 37.823C36.3831 39.323 33.2831 39.323 29.3831 37.923C29.2831 37.923 29.0831 37.823 28.9831 37.823C28.0831 38.523 27.1831 39.223 26.3831 39.823C25.6831 40.323 25.0831 40.723 24.3831 41.123C25.4831 41.723 26.5831 42.123 27.7831 42.623C29.8831 43.423 32.1831 43.923 34.4831 43.923C35.7831 43.923 37.0831 43.723 38.3831 43.323C39.4831 42.923 40.5831 42.223 41.3831 41.423C44.2831 38.523 44.7831 33.623 42.5831 27.823C42.1831 26.623 41.7831 25.523 41.1831 24.423ZM29.4831 5.923C33.2831 4.523 36.4831 4.523 37.9831 6.023C39.4831 7.523 39.4831 10.623 38.0831 14.523C37.6831 15.523 37.2831 16.523 36.7831 17.423C35.2831 15.523 33.6831 13.723 31.9831 11.923C30.8831 10.823 29.6831 9.723 28.4831 8.723C27.7831 8.123 27.1831 7.623 26.4831 7.123C27.4831 6.723 28.4831 6.223 29.4831 5.923ZM5.98309 37.923C4.38309 36.323 4.48309 32.923 6.18309 28.723C6.48309 28.023 6.78309 27.323 7.18309 26.523C7.68309 27.223 8.28309 27.923 8.88309 28.523C9.88309 29.623 10.8831 30.823 11.9831 31.923C13.6831 33.623 15.4831 35.223 17.3831 36.723C16.5831 37.123 15.8831 37.423 15.0831 37.723C10.9831 39.423 7.58309 39.523 5.98309 37.923ZM28.4831 28.523C26.4831 30.523 24.2831 32.423 21.8831 34.023C17.8831 31.223 14.3831 27.923 11.3831 24.023C10.7831 23.323 10.2831 22.623 9.88309 21.923C11.4831 19.623 13.3831 17.423 15.3831 15.323C16.8831 13.823 18.3831 12.523 20.0831 11.223C18.5831 10.223 17.0831 9.323 15.4831 8.623C14.2831 9.623 13.0831 10.723 11.9831 11.823C10.2831 13.523 8.68309 15.323 7.18309 17.223C4.58309 12.023 4.18309 7.723 5.98309 5.823C6.88309 5.023 8.18309 4.623 9.38309 4.723C13.9831 4.723 21.5831 8.323 28.4831 15.223C30.4831 17.223 32.3831 19.423 33.9831 21.723C33.5831 22.323 33.1831 22.923 32.6831 23.523C31.3831 25.423 29.9831 27.023 28.4831 28.523Z" fill="white"/>
<path d="M23.1258 26.557C25.6336 26.1501 27.3366 23.7872 26.9296 21.2795C26.5226 18.7717 24.1597 17.0687 21.652 17.4757C19.1442 17.8827 17.4413 20.2456 17.8482 22.7533C18.2552 25.261 20.6181 26.964 23.1258 26.557Z" fill="white"/>
</svg>
