<svg width="38" height="55" viewBox="0 0 38 55" fill="none" xmlns="http://www.w3.org/2000/svg">
<path d="M18.9056 55C8.77812 55 0.572266 46.4849 0.572266 36.0419V18.9046C0.572266 8.46154 8.77812 0 18.9056 0C29.0331 0 37.2389 8.46154 37.2389 18.9046V36.0419C37.2389 46.4849 29.0331 55 18.9056 55ZM18.9056 4.55209C11.2191 4.55209 4.98681 10.9786 4.98681 18.9046V36.0419C4.98681 43.9679 11.2191 50.3944 18.9056 50.3944C26.5921 50.3944 32.8244 43.9679 32.8244 36.0419V18.9046C32.8244 10.9786 26.5921 4.55209 18.9056 4.55209Z" fill="white"/>
<path d="M18.9056 22.9167C17.2712 22.9167 15.85 21.7258 15.85 20.2215V13.3896C15.85 11.948 17.2002 10.6944 18.9056 10.6944C20.611 10.6944 21.9612 11.8853 21.9612 13.3896V20.2215C21.9612 21.7258 20.611 22.9167 18.9056 22.9167Z" fill="white"/>
</svg>
