<svg width="11" height="11" viewBox="0 0 11 11" fill="none" xmlns="http://www.w3.org/2000/svg">
<path fill-rule="evenodd" clip-rule="evenodd" d="M0.438157 3.0393C0.438157 2.49776 0.863371 2.04341 1.4505 2.04244C2.0377 2.04139 2.417 2.04341 2.417 2.04341C2.417 2.04341 2.39177 1.46467 2.39177 1.0044C2.39177 0.54401 2.7967 0.0832908 3.38422 0.0832908C3.97174 0.0832908 9.41889 0.0663838 9.9713 0.107351C10.5237 0.148318 10.9634 0.495759 10.9634 1.0546C10.9634 1.61345 10.9598 7.15463 10.9598 7.66789C10.9598 8.18108 10.4995 8.6474 9.92864 8.65383C9.35783 8.66034 8.97098 8.64733 8.97098 8.64733C8.97098 8.64733 8.99199 9.29565 8.99199 9.69388C8.99199 10.092 8.52899 10.6703 7.98575 10.6703C7.44252 10.6703 1.9306 10.7056 1.40466 10.7056C0.878717 10.7056 0.393353 10.2428 0.415788 9.66598C0.438222 9.08913 0.438222 3.58072 0.438222 3.0393H0.438157ZM3.43332 1.18687L3.4289 7.57022C3.4289 7.64149 3.48703 7.69962 3.55889 7.69923L9.77258 7.66607C9.80712 7.66591 9.8402 7.65207 9.86455 7.62757C9.88891 7.60307 9.90255 7.56991 9.9025 7.53536L9.89834 1.2093C9.89829 1.17467 9.88449 1.14148 9.85999 1.11701C9.83548 1.09254 9.80227 1.07879 9.76763 1.07879L3.56402 1.0576C3.54693 1.05742 3.52997 1.06064 3.51413 1.06706C3.49829 1.07348 3.48388 1.08297 3.47172 1.09499C3.45957 1.10701 3.44992 1.12132 3.44333 1.13709C3.43674 1.15286 3.43333 1.16978 3.43332 1.18687ZM1.44335 3.30397L1.50292 9.56259C1.50334 9.59707 1.5174 9.62998 1.54201 9.65413C1.56662 9.67827 1.59979 9.6917 1.63427 9.69147L7.75497 9.64498C7.78907 9.64479 7.8228 9.63785 7.85421 9.62456C7.88562 9.61128 7.91409 9.59191 7.93798 9.56758C7.96188 9.54324 7.98072 9.51442 7.99343 9.48278C8.00613 9.45113 8.01245 9.41728 8.01202 9.38318L8.00312 8.65897C8.00312 8.65897 3.91439 8.69656 3.38266 8.69656C2.85093 8.69656 2.37877 8.19324 2.37877 7.62686C2.37877 7.06047 2.417 3.15948 2.417 3.15948C2.41765 3.08795 2.36017 3.03007 2.28851 3.03105L1.70151 3.0395C1.63224 3.04044 1.56617 3.06881 1.51778 3.11838C1.46938 3.16796 1.44262 3.23469 1.44335 3.30397Z" fill="#717A84"/>
</svg>
