<svg width="9" height="12" viewBox="0 0 9 12" fill="none" xmlns="http://www.w3.org/2000/svg">
<path d="M4.4956 0.079834L2.47778 2.09765H3.99114V6.63775H5.00005V2.09765H6.51342L4.4956 0.079834ZM7.52233 11.1778H1.46887C1.20129 11.1778 0.944671 11.0715 0.755464 10.8823C0.566256 10.6931 0.459961 10.4365 0.459961 10.1689V4.11547C0.459961 3.84789 0.566256 3.59127 0.755464 3.40207C0.944671 3.21286 1.20129 3.10656 1.46887 3.10656H2.98223V4.11547H1.46887V10.1689H7.52233V4.11547H6.00896V3.10656H7.52233C7.78991 3.10656 8.04653 3.21286 8.23573 3.40207C8.42494 3.59127 8.53124 3.84789 8.53124 4.11547V10.1689C8.53124 10.4365 8.42494 10.6931 8.23573 10.8823C8.04653 11.0715 7.78991 11.1778 7.52233 11.1778Z" fill="#717A84"/>
</svg>
