<svg width="10" height="11" viewBox="0 0 10 11" fill="none" xmlns="http://www.w3.org/2000/svg">
<path d="M9.41959 2.20104L5.78752 0.663876C5.67688 0.617258 5.55828 0.593262 5.4385 0.593262C5.31872 0.593262 5.20012 0.617258 5.08948 0.663876L1.45741 2.20104C1.11879 2.34322 0.897461 2.67948 0.897461 3.05224C0.897461 6.86632 3.06346 9.50255 5.08759 10.3595C5.31081 10.4537 5.56241 10.4537 5.78563 10.3595C7.40682 9.67356 9.97765 7.30441 9.97765 3.05224C9.97765 2.67948 9.75632 2.34322 9.41959 2.20104ZM5.43945 9.16822L5.43755 1.84749L8.76506 3.25591C8.70264 6.16499 7.21197 8.27282 5.43945 9.16822Z" fill="#717A84"/>
</svg>
