<svg width="8" height="8" viewBox="0 0 8 8" fill="none" xmlns="http://www.w3.org/2000/svg">
<path d="M3.84202 1.03002C3.35054 1.02782 2.86484 1.13604 2.42079 1.3467C1.97674 1.55736 1.58569 1.86507 1.2765 2.24712C0.313328 3.42627 0.301654 5.17748 1.25315 6.36831C2.50818 7.9444 4.79644 8.04363 6.17697 6.66309C6.61773 6.22234 6.92437 5.66557 7.06129 5.05748C7.1982 4.44938 7.15976 3.81492 6.95043 3.2278C6.84827 2.93885 6.48344 2.8542 6.26745 3.07019C6.15946 3.17818 6.11568 3.33871 6.1653 3.48172C6.36039 4.01573 6.36562 4.60064 6.18011 5.13805C5.99459 5.67546 5.62965 6.13258 5.14668 6.43252C4.35571 6.93745 3.30498 6.93161 2.51986 6.42084C2.20601 6.22232 1.94081 5.95578 1.74386 5.64094C1.54692 5.3261 1.42328 4.97101 1.38209 4.60194C1.34089 4.23286 1.3832 3.85925 1.50587 3.50873C1.62855 3.15822 1.82846 2.83976 2.09081 2.57693C2.57531 2.09243 3.20867 1.86185 3.84202 1.86477L3.84202 2.74621C3.84202 3.11397 4.28566 3.30076 4.54543 3.041L5.59324 1.99319C5.75376 1.83266 5.75376 1.56998 5.59324 1.40945L4.54543 0.361644C4.28566 0.101881 3.8391 0.285758 3.8391 0.653513L3.84202 1.03002Z" fill="#717A84"/>
</svg>
