<svg width="5" height="7" viewBox="0 0 5 7" fill="none" xmlns="http://www.w3.org/2000/svg">
<path d="M4.56195 2.63993H4.20306V1.77139C4.20306 0.722991 3.71241 0.106689 2.73294 0.106689C1.7531 0.106689 1.26281 0.722991 1.26281 1.77139V2.63993H0.830422C0.627177 2.63993 0.462891 2.87371 0.462891 3.07384V6.19305C0.462891 6.39172 0.620194 6.60524 0.812413 6.66604L1.25235 6.80609C1.48569 6.87306 1.7268 6.91028 1.96977 6.91683H3.4961C3.73898 6.91034 3.97999 6.873 4.21316 6.80573L4.65273 6.66568C4.84531 6.60524 5.00298 6.39172 5.00298 6.19305V3.07384C5.00298 2.87371 4.76482 2.63993 4.56195 2.63993ZM3.468 2.63993H1.99787V1.62627C1.99787 1.10334 2.2908 0.830472 2.73294 0.830472C3.17508 0.830472 3.468 1.10334 3.468 1.62627V2.63993Z" fill="#717A84"/>
</svg>
